<svg xmlns="http://www.w3.org/2000/svg" viewBox="0 0 1500 1500"><defs><style>.cls-1{fill:#009f98;stroke:#009f98;}.cls-1,.cls-2,.cls-3,.cls-4,.cls-5{stroke-miterlimit:10;}.cls-1,.cls-2,.cls-3{stroke-width:2px;}.cls-2{fill:#00a59e;stroke:#00a59e;}.cls-3{fill:#00a5a0;stroke:#00a5a0;}.cls-4{fill:#00578e;stroke:#00578e;}.cls-5{fill:#fafefb;stroke:#fafefb;}</style></defs><title>logo</title><g id="Circulo"><g id="arriba5"><path class="cls-1" d="M1098,538a1030.17,1030.17,0,0,0,16-134,1027.57,1027.57,0,0,0-2-139s130,84,193,272Z"/></g><g id="arriba4"><path class="cls-2" d="M1084,244s13,130-11,293H986a1017.79,1017.79,0,0,0-53.5-125.75A1033.92,1033.92,0,0,0,745,152a580.37,580.37,0,0,1,101.13,4.75C951.36,171,1032.34,211.57,1084,244Z"/></g><g id="arriba3"><path class="cls-1" d="M960,538S909,357,710,155c0,0-174,9-322,149,0,0,379,40,554,234Z"/></g><g id="arriba2"><path class="cls-1" d="M834,480s-165-42-397,58H240s30-108,124-209C364,329,641,350,834,480Z"/></g><g id="arriba1"><path class="cls-1" d="M616,537s28-23,58-38c0,0-103,13-163,38Z"/></g><g id="abajo5"><path class="cls-3" d="M807.5,946.5s85-11,172-60h327l-16,44S1030.5,1006.5,807.5,946.5Z"/></g><g id="abajo4"><path class="cls-2" d="M648,909s198,145,625,54c0,0-69,157-241,246-24.11-11.75-55.42-28-91-49-31.38-18.57-84.81-50.47-145-100A998.27,998.27,0,0,1,648,909Z"/></g><g id="abajo3"><path class="cls-3" d="M605.5,886.5s110,196,396,337c0,0-160,80-346,35,0,0-90-190-101-372Z"/></g><g id="abajo2"><path class="cls-3" d="M528,886s16,193,95,364c0,0-173-35-292-196,0,0,29-100,61-168Z"/></g><g id="abajo1"><path class="cls-3" d="M310,1029s-55-81-68-143H362S330,966,310,1029Z"/></g></g><g id="cuadrado"><rect class="cls-4" x="29.5" y="537.5" width="1452" height="349"/></g><g id="texto"><g id="x"><path class="cls-5" d="M1270.5,587.5l45,117q-23.51,62-47,124h26l40-102q19,51.5,38,103l30-1q-25-62-50-124l47-117h-27l-37,95-36-95Z"/></g><g id="e"><polygon class="cls-5" points="1136.5 587.5 1136.5 828.5 1237.5 828.5 1237.5 803.5 1164.5 803.5 1164.5 717.5 1223.5 717.5 1223.5 693.5 1164.5 693.5 1164.5 612.5 1237.5 612.5 1237.5 587.5 1136.5 587.5"/></g><g id="m"><path class="cls-5" d="M942.5,587.5v242h26v-186l38,186h28l36-187v187h27v-242h-38q-19,97.5-38,195l-39-195Z"/></g><g id="l"><polygon class="cls-5" points="842.5 587.5 842.5 803.5 912.5 803.5 912.5 829.5 816.5 829.5 816.5 587.5 842.5 587.5"/></g><g id="o"><path class="cls-5" d="M749.5,677.5h28v-43c-.11-3.32-1.16-24.69-19-39a51.35,51.35,0,0,0-30-11h-9c-5.18.19-20.49,1.43-34,13-20.52,17.58-19.21,43.88-19,47v133c0,2.9.37,29.4,22.11,45.14,13.92,10.08,28.8,10.09,33.89,9.86,3,.07,28.08.27,44-20,10.51-13.38,11-28.07,11-33v-96h-28v101a27,27,0,0,1-9,16c-8.83,7.48-19.3,6.23-21,6a29.88,29.88,0,0,1-17-8,30.26,30.26,0,0,1-9-20v-142c.26-2.12,2.06-15.29,13-22,6.25-3.83,12.86-4,16-4,3.55-.06,9.52-.16,15,3,11.07,6.39,11.93,21.36,12,23Z"/><rect class="cls-5" x="749.5" y="665.5" width="28" height="20"/></g><g id="p"><path class="cls-5" d="M607.5,655.5h28v-26a50.18,50.18,0,0,0-8.62-21c-12.44-17.31-32.13-20.43-36.38-21h-63v242h29v-96h34c2.93-.17,22.86-1.63,35.75-18.8a48.13,48.13,0,0,0,9.25-31.2v-24h-28v23c0,3.28,0,3.51,0,4a24.18,24.18,0,0,1-1,6,23.13,23.13,0,0,1-3,7,21.53,21.53,0,0,1-13,9h-35l1-96,32,1a23.34,23.34,0,0,1,10,5,24.27,24.27,0,0,1,8,15Z"/><rect class="cls-5" x="607.5" y="655.5" width="28" height="7"/></g><g id="o-2" data-name="o"><path class="cls-5" d="M462.5,677.5h28v-43c-.11-3.32-1.16-24.69-19-39a51.35,51.35,0,0,0-30-11h-9c-5.18.19-20.49,1.43-34,13-20.52,17.58-19.21,43.88-19,47v133c0,2.9.37,29.4,22.11,45.14,13.92,10.08,28.8,10.09,33.89,9.86,3,.07,28.08.27,44-20,10.51-13.38,11-28.07,11-33v-96h-28v101a27,27,0,0,1-9,16c-8.83,7.48-19.3,6.23-21,6a29.88,29.88,0,0,1-17-8,30.26,30.26,0,0,1-9-20v-142c.26-2.12,2.06-15.29,13-22,6.25-3.83,12.86-4,16-4,3.55-.06,9.52-.16,15,3,11.07,6.39,11.93,21.36,12,23Z"/><rect class="cls-5" x="462.5" y="665.5" width="28" height="20"/></g><g id="c"><path class="cls-5" d="M318.5,668.5h27v-35s-3-48-54-48c-4.16-.18-21.49-.43-36.54,12.35C236,614,236.39,637.47,236.5,640.5v142c.19,3.42,1.57,22.59,18,37s35.57,13.26,39,13c3.36,0,23-.18,38-16a52.34,52.34,0,0,0,14-33v-43h-26l-1,42c0,1.73-.38,11.11-8,18a24.6,24.6,0,0,1-13,6c-2.65.37-16.58,2.59-26-7.42a27.08,27.08,0,0,1-7-16.58v-145s3-25,27-26c1.74,0,12.16-.19,20,8a26.39,26.39,0,0,1,7,15Z"/></g><g id="e-2" data-name="e"><polygon class="cls-5" points="102 588 102 829 203 829 203 804 130 804 130 718 189 718 189 694 130 694 130 613 203 613 203 588 102 588"/></g></g></svg>